<svg xmlns="http://www.w3.org/2000/svg" width="128" height="128">
  <path d="M92 36l-5 36v6c0 3 1 4 3 4 4 0 8-3 11-7 4-5 5-11 5-19 0-10-4-19-11-26-8-7-17-10-29-10s-22 4-30 12c-9 9-13 19-13 32 0 12 4 22 12 31 8 8 19 13 33 13 11 0 22-3 34-9l5 13c-13 6-26 9-39 9-19 0-33-5-44-17C13 93 7 80 7 64s6-30 17-41C36 12 50 7 66 7s29 5 39 14c11 10 16 21 16 35 0 11-3 20-10 28-6 7-14 11-22 11-6 0-11-2-14-7-4 5-9 8-15 8s-12-3-16-9c-5-5-7-12-7-21s3-16 8-22 11-9 18-9c5 0 9 2 13 5l1-4h15zM61 80c4 0 7-1 10-5 2-4 4-8 4-12s-1-7-3-9c-3-2-5-4-8-4s-6 2-8 5-3 7-3 12c0 3 1 7 2 9 2 3 4 4 6 4z" fill="#fff"/>
</svg>
