<svg xmlns="http://www.w3.org/2000/svg" xml:space="preserve" width="128" height="128" version="1.1" viewBox="0 0 128 128" style="image-rendering:optimizeQuality;shape-rendering:geometricPrecision;text-rendering:geometricPrecision"><defs><style type="text/css">
    .fil0 {fill:white;fill-rule:nonzero}
   </style></defs><path class="fil0" d="M92 36l-5 36c0 2 0 5 0 6 0 3 1 4 3 4 4 0 8-3 11-7 4-5 5-11 5-19 0-10-4-19-11-26-8-7-17-10-29-10-12 0-22 4-30 12-9 9-13 19-13 32 0 12 4 22 12 31 8 8 19 13 33 13 11 0 22-3 34-9l5 13c-13 6-26 9-39 9-19 0-33-5-44-17-11-11-17-24-17-40 0-16 6-30 17-41 12-11 26-16 42-16 16 0 29 5 39 14 11 10 16 21 16 35 0 11-3 20-10 28-6 7-14 11-22 11-6 0-11-2-14-7-4 5-9 8-15 8-6 0-12-3-16-9-5-5-7-12-7-21 0-9 3-16 8-22 5-6 11-9 18-9 5 0 9 2 13 5l1-4 15 0zm-31 44c4 0 7-1 10-5 2-4 4-8 4-12 0-4-1-7-3-9-3-2-5-4-8-4-3 0-6 2-8 5-2 3-3 7-3 12 0 3 1 7 2 9 2 3 4 4 6 4z"/></svg>