<svg xmlns="http://www.w3.org/2000/svg" width="128" height="128">
  <path d="M121 97h-2v-3h2c1 0 2 0 2 1 0 2-1 2-2 2zm1 0c1 0 2 0 2-2 0-1-1-2-3-2h-3v8h1v-3h2l2 3h1l-2-4zm-1 6c-4 0-6-2-6-6 0-3 2-6 6-6 3 0 6 3 6 6 0 4-3 6-6 6zm0-13c-4 0-7 3-7 7s3 7 7 7 7-3 7-7-3-7-7-7zm-28 12H77V77c0-6 0-14-9-14-8 0-9 7-9 14v25H42V50h16v7c2-4 8-8 16-8 16 0 19 11 19 25v28zM24 43c-5 0-9-4-9-9s4-10 9-10 10 5 10 10-5 9-10 9zm8 59H16V50h16v52zm69-93H8c-4 0-8 4-8 8v94c0 4 4 8 8 8h93c4 0 8-4 8-8V17c0-4-4-8-8-8z" fill="#fff"/>
</svg>
