<svg xmlns="http://www.w3.org/2000/svg" xml:space="preserve" width="128" height="128" version="1.1" viewBox="0 0 128 128" style="image-rendering:optimizeQuality;shape-rendering:geometricPrecision;text-rendering:geometricPrecision"><defs><style type="text/css">
    .fil0 {fill:white}
   </style></defs><path class="fil0" d="M121 97l-2 0 0-3 2 0c1 0 2 0 2 1 0 2-1 2-2 2zm1 0c1 0 2 0 2-2 0-1-1-2-3-2l-3 0 0 8 1 0 0-3 2 0 0 0 2 3 1 0-2-4 0 0zM121 103c-4 0-6-2-6-6 0-3 2-6 6-6 3 0 6 3 6 6 0 4-3 6-6 6zm0-13c-4 0-7 3-7 7 0 4 3 7 7 7 4 0 7-3 7-7 0-4-3-7-7-7zM93 102l-16 0 0-25c0-6 0-14-9-14-8 0-9 7-9 14l0 25-17 0 0-52 16 0 0 7 0 0c2-4 8-8 16-8 16 0 19 11 19 25l0 28zm-69-59c-5 0-9-4-9-9 0-5 4-10 9-10 5 0 10 5 10 10 0 5-5 9-10 9zm8 59l-16 0 0-52 16 0 0 52zm69-93l-93 0c-4 0-8 4-8 8l0 94c0 4 4 8 8 8l93 0c4 0 8-4 8-8l0-94c0-4-4-8-8-8z"/></svg>