<svg xmlns="http://www.w3.org/2000/svg" xml:space="preserve" width="128" height="128" version="1.1" viewBox="0 0 128 128" style="image-rendering:optimizeQuality;shape-rendering:geometricPrecision;text-rendering:geometricPrecision"><defs><style type="text/css">
    .fil0 {fill:#FEFEFE}
   </style></defs><path class="fil0" d="M64 2c-35 0-64 28-64 64 0 28 18 52 44 60 3 1 4-1 4-3 0-1 0-5 0-11-18 4-22-8-22-8-2-8-7-10-7-10-5-4 1-3 1-3 6 0 10 6 10 6 5 10 15 7 18 5 1-4 2-7 4-8-14-2-29-7-29-32 0-7 3-12 7-17-1-2-3-8 0-17 0 0 6-2 18 7 5-2 11-2 16-2 5 0 11 0 16 2 12-9 18-7 18-7 3 9 1 15 0 17 4 5 7 10 7 17 0 25-15 30-29 32 2 2 4 6 4 12 0 8 0 15 0 17 0 2 1 4 4 3 26-8 44-32 44-60 0-36-29-64-64-64z"/></svg>